<svg id="visual" viewBox="0 0 960 540" width="960" height="540" xmlns="http://www.w3.org/2000/svg" xmlns:xlink="http://www.w3.org/1999/xlink" version="1.1"><g stroke-width="1" stroke-linejoin="bevel"><path d="M448.7 242L544.3 238L457.7 205Z" fill="#151b25" stroke="#151b25"></path><path d="M544.3 238L542.3 148L457.7 205Z" fill="#06131e" stroke="#06131e"></path><path d="M533.3 388L608 283L544.3 238Z" fill="#20222b" stroke="#20222b"></path><path d="M544.3 238L636 147L542.3 148Z" fill="#191d27" stroke="#191d27"></path><path d="M448.7 242L454.7 349L544.3 238Z" fill="#282830" stroke="#282830"></path><path d="M457.7 205L341 247L448.7 242Z" fill="#00101c" stroke="#00101c"></path><path d="M448.7 242L341 247L454.7 349Z" fill="#2b2b32" stroke="#2b2b32"></path><path d="M401.7 85L341 247L457.7 205Z" fill="#00101c" stroke="#00101c"></path><path d="M636 147L565.3 92L542.3 148Z" fill="#1d2029" stroke="#1d2029"></path><path d="M542.3 148L401.7 85L457.7 205Z" fill="#24252e" stroke="#24252e"></path><path d="M454.7 349L533.3 388L544.3 238Z" fill="#2b2b32" stroke="#2b2b32"></path><path d="M608 283L636 147L544.3 238Z" fill="#151b25" stroke="#151b25"></path><path d="M533.3 388L633 344L608 283Z" fill="#2b2b32" stroke="#2b2b32"></path><path d="M741.7 244L708.7 116L636 147Z" fill="#20222b" stroke="#20222b"></path><path d="M565.3 92L401.7 85L542.3 148Z" fill="#151b25" stroke="#151b25"></path><path d="M401.7 85L300 206L341 247Z" fill="#20222b" stroke="#20222b"></path><path d="M250.3 371L324 356L341 247Z" fill="#00101c" stroke="#00101c"></path><path d="M341 247L324 356L454.7 349Z" fill="#24252e" stroke="#24252e"></path><path d="M401.7 489L553.3 485L533.3 388Z" fill="#00101c" stroke="#00101c"></path><path d="M708.7 116L642 53L636 147Z" fill="#24252e" stroke="#24252e"></path><path d="M636 147L642 53L565.3 92Z" fill="#111823" stroke="#111823"></path><path d="M565.3 92L459.7 0L401.7 85Z" fill="#282830" stroke="#282830"></path><path d="M537.3 0L459.7 0L565.3 92Z" fill="#1d2029" stroke="#1d2029"></path><path d="M218.3 108L235.3 216L300 206Z" fill="#20222b" stroke="#20222b"></path><path d="M642 53L537.3 0L565.3 92Z" fill="#20222b" stroke="#20222b"></path><path d="M741.7 244L636 147L608 283Z" fill="#151b25" stroke="#151b25"></path><path d="M633 344L741.7 244L608 283Z" fill="#20222b" stroke="#20222b"></path><path d="M533.3 388L635 446L633 344Z" fill="#111823" stroke="#111823"></path><path d="M633 344L784.7 325L741.7 244Z" fill="#20222b" stroke="#20222b"></path><path d="M553.3 485L635 446L533.3 388Z" fill="#06131e" stroke="#06131e"></path><path d="M401.7 489L533.3 388L454.7 349Z" fill="#20222b" stroke="#20222b"></path><path d="M294 59L300 206L401.7 85Z" fill="#191d27" stroke="#191d27"></path><path d="M300 206L235.3 216L341 247Z" fill="#0d1620" stroke="#0d1620"></path><path d="M308 0L294 59L401.7 85Z" fill="#191d27" stroke="#191d27"></path><path d="M335 463L454.7 349L324 356Z" fill="#20222b" stroke="#20222b"></path><path d="M335 463L401.7 489L454.7 349Z" fill="#0d1620" stroke="#0d1620"></path><path d="M764.7 0L650 0L642 53Z" fill="#282830" stroke="#282830"></path><path d="M642 53L650 0L537.3 0Z" fill="#24252e" stroke="#24252e"></path><path d="M250.3 371L335 463L324 356Z" fill="#20222b" stroke="#20222b"></path><path d="M741.7 244L762.7 147L708.7 116Z" fill="#151b25" stroke="#151b25"></path><path d="M708.7 116L764.7 0L642 53Z" fill="#0d1620" stroke="#0d1620"></path><path d="M235.3 216L250.3 371L341 247Z" fill="#282830" stroke="#282830"></path><path d="M459.7 0L308 0L401.7 85Z" fill="#151b25" stroke="#151b25"></path><path d="M218.3 108L192.3 237L235.3 216Z" fill="#151b25" stroke="#151b25"></path><path d="M769.7 460L784.7 325L633 344Z" fill="#0d1620" stroke="#0d1620"></path><path d="M741.7 244L828.3 204L762.7 147Z" fill="#00101c" stroke="#00101c"></path><path d="M235.3 216L192.3 237L250.3 371Z" fill="#191d27" stroke="#191d27"></path><path d="M218.3 108L300 206L294 59Z" fill="#2b2b32" stroke="#2b2b32"></path><path d="M220.3 0L218.3 108L294 59Z" fill="#282830" stroke="#282830"></path><path d="M304 540L456.7 540L401.7 489Z" fill="#282830" stroke="#282830"></path><path d="M401.7 489L456.7 540L553.3 485Z" fill="#2b2b32" stroke="#2b2b32"></path><path d="M553.3 485L616 540L635 446Z" fill="#282830" stroke="#282830"></path><path d="M456.7 540L558.3 540L553.3 485Z" fill="#24252e" stroke="#24252e"></path><path d="M635 446L769.7 460L633 344Z" fill="#06131e" stroke="#06131e"></path><path d="M558.3 540L616 540L553.3 485Z" fill="#191d27" stroke="#191d27"></path><path d="M829.3 262L828.3 204L741.7 244Z" fill="#191d27" stroke="#191d27"></path><path d="M762.7 147L815.3 125L708.7 116Z" fill="#00101c" stroke="#00101c"></path><path d="M784.7 325L829.3 262L741.7 244Z" fill="#282830" stroke="#282830"></path><path d="M828.3 204L815.3 125L762.7 147Z" fill="#24252e" stroke="#24252e"></path><path d="M707.7 540L769.7 460L635 446Z" fill="#00101c" stroke="#00101c"></path><path d="M784.7 325L834.3 355L829.3 262Z" fill="#111823" stroke="#111823"></path><path d="M815.3 125L764.7 0L708.7 116Z" fill="#24252e" stroke="#24252e"></path><path d="M769.7 460L834.3 355L784.7 325Z" fill="#06131e" stroke="#06131e"></path><path d="M960 145L815.3 125L828.3 204Z" fill="#0d1620" stroke="#0d1620"></path><path d="M335 463L304 540L401.7 489Z" fill="#151b25" stroke="#151b25"></path><path d="M227.3 482L304 540L335 463Z" fill="#20222b" stroke="#20222b"></path><path d="M227.3 482L335 463L250.3 371Z" fill="#282830" stroke="#282830"></path><path d="M308 0L220.3 0L294 59Z" fill="#00101c" stroke="#00101c"></path><path d="M109.7 170L134.7 293L192.3 237Z" fill="#151b25" stroke="#151b25"></path><path d="M108.7 414L227.3 482L250.3 371Z" fill="#00101c" stroke="#00101c"></path><path d="M109.7 170L192.3 237L218.3 108Z" fill="#111823" stroke="#111823"></path><path d="M192.3 237L134.7 293L250.3 371Z" fill="#1d2029" stroke="#1d2029"></path><path d="M616 540L707.7 540L635 446Z" fill="#2b2b32" stroke="#2b2b32"></path><path d="M126.7 82L109.7 170L218.3 108Z" fill="#151b25" stroke="#151b25"></path><path d="M220.3 0L126.7 82L218.3 108Z" fill="#282830" stroke="#282830"></path><path d="M707.7 540L821.3 478L769.7 460Z" fill="#1d2029" stroke="#1d2029"></path><path d="M769.7 460L821.3 478L834.3 355Z" fill="#191d27" stroke="#191d27"></path><path d="M108.7 414L203.3 540L227.3 482Z" fill="#24252e" stroke="#24252e"></path><path d="M227.3 482L203.3 540L304 540Z" fill="#06131e" stroke="#06131e"></path><path d="M220.3 0L142.7 0L126.7 82Z" fill="#282830" stroke="#282830"></path><path d="M0 243L82.7 328L134.7 293Z" fill="#111823" stroke="#111823"></path><path d="M134.7 293L108.7 414L250.3 371Z" fill="#282830" stroke="#282830"></path><path d="M82.7 328L108.7 414L134.7 293Z" fill="#282830" stroke="#282830"></path><path d="M960 73L888.3 0L815.3 125Z" fill="#191d27" stroke="#191d27"></path><path d="M815.3 125L888.3 0L764.7 0Z" fill="#111823" stroke="#111823"></path><path d="M960 242L828.3 204L829.3 262Z" fill="#282830" stroke="#282830"></path><path d="M960 242L829.3 262L960 353Z" fill="#24252e" stroke="#24252e"></path><path d="M960 353L829.3 262L834.3 355Z" fill="#191d27" stroke="#191d27"></path><path d="M960 242L960 145L828.3 204Z" fill="#191d27" stroke="#191d27"></path><path d="M960 469L960 353L834.3 355Z" fill="#00101c" stroke="#00101c"></path><path d="M960 145L960 73L815.3 125Z" fill="#282830" stroke="#282830"></path><path d="M707.7 540L885.3 540L821.3 478Z" fill="#24252e" stroke="#24252e"></path><path d="M821.3 478L960 469L834.3 355Z" fill="#20222b" stroke="#20222b"></path><path d="M109.7 170L0 243L134.7 293Z" fill="#1d2029" stroke="#1d2029"></path><path d="M82.7 328L0 365L108.7 414Z" fill="#24252e" stroke="#24252e"></path><path d="M0 212L0 243L109.7 170Z" fill="#1d2029" stroke="#1d2029"></path><path d="M0 212L109.7 170L0 81Z" fill="#191d27" stroke="#191d27"></path><path d="M0 81L109.7 170L126.7 82Z" fill="#24252e" stroke="#24252e"></path><path d="M0 243L0 365L82.7 328Z" fill="#151b25" stroke="#151b25"></path><path d="M108.7 414L82.7 540L203.3 540Z" fill="#151b25" stroke="#151b25"></path><path d="M0 418L82.7 540L108.7 414Z" fill="#151b25" stroke="#151b25"></path><path d="M0 0L0 81L126.7 82Z" fill="#282830" stroke="#282830"></path><path d="M960 73L960 0L888.3 0Z" fill="#282830" stroke="#282830"></path><path d="M885.3 540L960 469L821.3 478Z" fill="#00101c" stroke="#00101c"></path><path d="M0 365L0 418L108.7 414Z" fill="#0d1620" stroke="#0d1620"></path><path d="M142.7 0L0 0L126.7 82Z" fill="#0d1620" stroke="#0d1620"></path><path d="M885.3 540L960 540L960 469Z" fill="#20222b" stroke="#20222b"></path><path d="M0 418L0 540L82.7 540Z" fill="#20222b" stroke="#20222b"></path></g></svg>